<svg xmlns="http://www.w3.org/2000/svg" viewBox="0 0 120 120" width="120" height="120" role="img" aria-label="Urban Toolboxes">
  <circle cx="60" cy="60" r="50" fill="none" stroke="#6d727a" stroke-width="3.4"/>
  <g fill="#ced1d5" stroke="#6d727a" stroke-width="1.9" stroke-linejoin="round">
    <path d="M25.75 98 L25.75 61 L31.25 56 L36.75 61 L36.75 98 Z"/>
    <path d="M37.25 98 L37.25 53 L42.75 48 L48.25 53 L48.25 98 Z"/>
    <path d="M48.75 98 L48.75 39 L54.25 34 L59.75 39 L59.75 98 Z"/>
    <path d="M60.25 98 L60.25 35 L65.75 30 L71.25 35 L71.25 98 Z"/>
    <path d="M71.75 98 L71.75 63 L77.25 58 L82.75 63 L82.75 98 Z"/>
    <path d="M83.25 98 L83.25 57 L88.75 52 L94.25 57 L94.25 98 Z"/>
  </g>
  <g stroke="#6d727a" stroke-width="1.1" opacity="0.55">
    <line x1="31.25" y1="57" x2="31.25" y2="97"/>
    <line x1="42.75" y1="49" x2="42.75" y2="97"/>
    <line x1="54.25" y1="35" x2="54.25" y2="97"/>
    <line x1="65.75" y1="31" x2="65.75" y2="97"/>
    <line x1="77.25" y1="59" x2="77.25" y2="97"/>
    <line x1="88.75" y1="53" x2="88.75" y2="97"/>
  </g>
</svg>
